<?xml version="1.0" encoding="UTF-8"?>
<!DOCTYPE svg PUBLIC "-//W3C//DTD SVG 1.1//EN" "http://www.w3.org/Graphics/SVG/1.1/DTD/svg11.dtd">
<svg xmlns="http://www.w3.org/2000/svg" version="1.1" width="580px" height="386px" style="shape-rendering:geometricPrecision; text-rendering:geometricPrecision; image-rendering:optimizeQuality; fill-rule:evenodd; clip-rule:evenodd" xmlns:xlink="http://www.w3.org/1999/xlink">
<g><path style="opacity:1" fill="#afaeaf" d="M 353.5,97.5 C 353.5,98.1667 353.5,98.8333 353.5,99.5C 314.934,88.0389 279.268,93.8722 246.5,117C 232.658,128.195 223.491,142.362 219,159.5C 218.829,164.533 218.329,169.533 217.5,174.5C 212.188,170.747 209.854,165.58 210.5,159C 211.599,145.308 216.433,133.141 225,122.5C 253.369,92.7755 287.869,81.6088 328.5,89C 337.382,90.5711 345.716,93.4044 353.5,97.5 Z"/></g>
<g><path style="opacity:1" fill="#043d65" d="M 339.5,89.5 C 338.411,87.8829 336.744,87.0496 334.5,87C 334.833,86.6667 335.167,86.3333 335.5,86C 333.567,85.7489 331.734,85.2489 330,84.5C 328.853,85.4581 327.853,85.1247 327,83.5C 314.927,83.4855 302.761,83.6521 290.5,84C 285.219,84.0392 280.553,85.5392 276.5,88.5C 260.094,93.0344 245.428,100.701 232.5,111.5C 231.127,111.343 229.793,111.51 228.5,112C 220.393,121.025 213.893,131.191 209,142.5C 206.906,150.391 206.239,158.391 207,166.5C 209.438,171.267 212.271,175.767 215.5,180C 217.385,181.088 219.385,181.921 221.5,182.5C 222.726,182.48 223.726,182.147 224.5,181.5C 234.93,186.36 245.93,189.527 257.5,191C 268.815,191.969 280.148,192.636 291.5,193C 292.26,194.441 292.926,195.941 293.5,197.5C 291.229,198.7 288.896,199.7 286.5,200.5C 286.265,199.903 285.765,199.57 285,199.5C 275.093,201.503 265.26,203.67 255.5,206C 234.033,209.805 212.699,209.305 191.5,204.5C 191.09,200.44 188.756,198.44 184.5,198.5C 182.608,199.813 180.941,199.646 179.5,198C 180.167,197.667 180.833,197.333 181.5,197C 178.629,196.869 176.295,195.703 174.5,193.5C 173.714,189.181 173.047,184.847 172.5,180.5C 173.875,176.963 172.542,175.296 168.5,175.5C 174.502,134.659 195.502,104.159 231.5,84C 282.694,60.2057 330.028,66.2057 373.5,102C 375.874,104.039 377.874,106.372 379.5,109C 366.991,101.248 353.658,94.7477 339.5,89.5 Z"/></g>
<g><path style="opacity:0.055" fill="#5d5f6c" d="M 362.5,102.5 C 363.239,102.369 363.906,102.536 364.5,103C 363.563,103.692 362.897,103.525 362.5,102.5 Z"/></g>
<g><path style="opacity:0.31" fill="#676c70" d="M 353.5,97.5 C 356.992,98.4097 359.992,100.076 362.5,102.5C 359.285,102.095 356.285,101.095 353.5,99.5C 353.5,98.8333 353.5,98.1667 353.5,97.5 Z"/></g>
<g><path style="opacity:0.745" fill="#09274a" d="M 339.5,89.5 C 318.579,83.3794 297.579,83.046 276.5,88.5C 280.553,85.5392 285.219,84.0392 290.5,84C 302.761,83.6521 314.927,83.4855 327,83.5C 327.853,85.1247 328.853,85.4581 330,84.5C 331.734,85.2489 333.567,85.7489 335.5,86C 335.167,86.3333 334.833,86.6667 334.5,87C 336.744,87.0496 338.411,87.8829 339.5,89.5 Z"/></g>
<g><path style="opacity:1" fill="#093c64" d="M 342.5,183.5 C 332.596,185.975 322.596,188.142 312.5,190C 311.491,192.172 309.824,193.338 307.5,193.5C 307.539,195.359 306.706,196.692 305,197.5C 303.581,194.704 301.415,192.704 298.5,191.5C 297.998,190.284 297.665,189.117 297.5,188C 294.123,187.548 290.789,186.882 287.5,186C 289.5,185.667 291.5,185.333 293.5,185C 290.833,184.333 290.833,183.667 293.5,183C 291.658,181.656 289.992,180.156 288.5,178.5C 289.833,177.5 289.833,176.5 288.5,175.5C 291.131,173.995 290.797,173.329 287.5,173.5C 288.055,177.584 287.055,178.251 284.5,175.5C 283.893,175.624 283.56,175.957 283.5,176.5C 280.521,174.188 277.854,171.521 275.5,168.5C 277.226,166.97 279.226,165.97 281.5,165.5C 291.983,170.716 302.816,175.05 314,178.5C 320.697,176.323 327.197,173.656 333.5,170.5C 327.604,168.359 321.604,166.525 315.5,165C 314.185,163.605 314.519,162.605 316.5,162C 330.5,161.667 344.5,161.333 358.5,161C 368.948,156.943 379.282,152.609 389.5,148C 396.599,145.616 403.433,146.116 410,149.5C 410.667,150.833 410.667,152.167 410,153.5C 401.765,160.87 392.265,166.037 381.5,169C 371.882,179.74 362.382,190.573 353,201.5C 350.961,203.874 348.628,205.874 346,207.5C 344.842,207.002 344.009,206.169 343.5,205C 347.746,197.258 350.58,189.092 352,180.5C 348.878,181.645 345.711,182.645 342.5,183.5 Z"/></g>
<g><path style="opacity:0.843" fill="#153453" d="M 232.5,111.5 C 220.6,121.952 212.767,134.952 209,150.5C 205.223,165.5 210.389,175.833 224.5,181.5C 223.726,182.147 222.726,182.48 221.5,182.5C 219.385,181.921 217.385,181.088 215.5,180C 212.271,175.767 209.438,171.267 207,166.5C 206.239,158.391 206.906,150.391 209,142.5C 213.893,131.191 220.393,121.025 228.5,112C 229.793,111.51 231.127,111.343 232.5,111.5 Z"/></g>
<g><path style="opacity:1" fill="#103459" d="M 342.5,183.5 C 332.428,187.469 322.095,190.969 311.5,194C 308.049,197.74 304.715,201.573 301.5,205.5C 300.675,206.386 299.675,206.719 298.5,206.5C 298.895,203.314 299.895,200.314 301.5,197.5C 296.651,196.855 294.984,194.355 296.5,190C 291.956,188.952 287.622,187.452 283.5,185.5C 285.833,184.833 288.167,184.167 290.5,183.5C 288.327,180.932 285.994,178.599 283.5,176.5C 283.56,175.957 283.893,175.624 284.5,175.5C 287.055,178.251 288.055,177.584 287.5,173.5C 290.797,173.329 291.131,173.995 288.5,175.5C 289.833,176.5 289.833,177.5 288.5,178.5C 289.992,180.156 291.658,181.656 293.5,183C 290.833,183.667 290.833,184.333 293.5,185C 291.5,185.333 289.5,185.667 287.5,186C 290.789,186.882 294.123,187.548 297.5,188C 297.665,189.117 297.998,190.284 298.5,191.5C 301.415,192.704 303.581,194.704 305,197.5C 306.706,196.692 307.539,195.359 307.5,193.5C 309.824,193.338 311.491,192.172 312.5,190C 322.596,188.142 332.596,185.975 342.5,183.5 Z"/></g>
<g><path style="opacity:0.984" fill="#10355c" d="M 168.5,175.5 C 172.542,175.296 173.875,176.963 172.5,180.5C 173.047,184.847 173.714,189.181 174.5,193.5C 176.295,195.703 178.629,196.869 181.5,197C 180.833,197.333 180.167,197.667 179.5,198C 180.941,199.646 182.608,199.813 184.5,198.5C 188.756,198.44 191.09,200.44 191.5,204.5C 212.699,209.305 234.033,209.805 255.5,206C 265.26,203.67 275.093,201.503 285,199.5C 285.765,199.57 286.265,199.903 286.5,200.5C 256.667,209.672 226.333,211.838 195.5,207C 179.166,204.168 169.833,194.668 167.5,178.5C 167.685,177.416 168.018,176.416 168.5,175.5 Z"/></g>
<g><path style="opacity:1" fill="#008edf" d="M 395.5,224.5 C 395.5,225.5 395.5,226.5 395.5,227.5C 399.814,227.387 400.981,229.053 399,232.5C 396.095,231.044 393.095,229.711 390,228.5C 387.848,230.277 388.015,231.777 390.5,233C 393.482,233.498 396.482,233.665 399.5,233.5C 399.33,234.822 399.663,235.989 400.5,237C 396.461,236.91 395.794,238.077 398.5,240.5C 399.466,242.396 399.799,244.396 399.5,246.5C 381.389,282.735 352.389,304.735 312.5,312.5C 299.423,311.921 286.59,311.921 274,312.5C 268.341,311.149 262.508,310.482 256.5,310.5C 230.118,303.554 208.618,289.221 192,267.5C 191.251,266.365 191.417,265.365 192.5,264.5C 199.297,261.989 205.63,262.989 211.5,267.5C 219.801,261.398 228.301,261.065 237,266.5C 246.065,246.81 260.565,241.31 280.5,250C 285.382,253.214 289.215,257.381 292,262.5C 296.99,247.088 307.157,241.922 322.5,247C 326.333,249.5 329.5,252.667 332,256.5C 337.587,246.788 346.087,242.455 357.5,243.5C 361.828,227.018 372.495,219.852 389.5,222C 391.723,222.566 393.723,223.4 395.5,224.5 Z"/></g>
<g><path style="opacity:1" fill="#018cd5" d="M 395.5,224.5 C 406.074,229.928 407.407,237.261 399.5,246.5C 399.799,244.396 399.466,242.396 398.5,240.5C 395.794,238.077 396.461,236.91 400.5,237C 399.663,235.989 399.33,234.822 399.5,233.5C 396.482,233.665 393.482,233.498 390.5,233C 388.015,231.777 387.848,230.277 390,228.5C 393.095,229.711 396.095,231.044 399,232.5C 400.981,229.053 399.814,227.387 395.5,227.5C 395.5,226.5 395.5,225.5 395.5,224.5 Z"/></g>
<g><path style="opacity:0.998" fill="#0189d1" d="M 256.5,310.5 C 262.508,310.482 268.341,311.149 274,312.5C 286.59,311.921 299.423,311.921 312.5,312.5C 293.666,316.845 274.999,316.178 256.5,310.5 Z"/></g>
</svg>
